<mxfile host="Electron" modified="2024-04-28T19:54:51.731Z" agent="Mozilla/5.0 (Windows NT 10.0; Win64; x64) AppleWebKit/537.36 (KHTML, like Gecko) draw.io/24.2.5 Chrome/120.0.6099.109 Electron/28.1.0 Safari/537.36" etag="EjDSQyvElK-K-LyCBXXu" version="24.2.5" type="device">
  <diagram id="C5RBs43oDa-KdzZeNtuy" name="Page-1">
    <mxGraphModel dx="1120" dy="532" grid="1" gridSize="10" guides="1" tooltips="1" connect="1" arrows="1" fold="1" page="1" pageScale="1" pageWidth="827" pageHeight="1169" math="0" shadow="0">
      <root>
        <mxCell id="WIyWlLk6GJQsqaUBKTNV-0" />
        <mxCell id="WIyWlLk6GJQsqaUBKTNV-1" parent="WIyWlLk6GJQsqaUBKTNV-0" />
        <mxCell id="pOoOVeyxzRa-pl3DBlk2-1" value="" style="edgeStyle=orthogonalEdgeStyle;rounded=0;orthogonalLoop=1;jettySize=auto;html=1;" edge="1" parent="WIyWlLk6GJQsqaUBKTNV-1" source="WIyWlLk6GJQsqaUBKTNV-3" target="pOoOVeyxzRa-pl3DBlk2-0">
          <mxGeometry relative="1" as="geometry" />
        </mxCell>
        <mxCell id="pOoOVeyxzRa-pl3DBlk2-27" value="" style="edgeStyle=orthogonalEdgeStyle;rounded=0;orthogonalLoop=1;jettySize=auto;html=1;" edge="1" parent="WIyWlLk6GJQsqaUBKTNV-1" source="pOoOVeyxzRa-pl3DBlk2-26" target="WIyWlLk6GJQsqaUBKTNV-3">
          <mxGeometry relative="1" as="geometry" />
        </mxCell>
        <mxCell id="WIyWlLk6GJQsqaUBKTNV-3" value="Simulate the first flip" style="rounded=1;whiteSpace=wrap;html=1;fontSize=12;glass=0;strokeWidth=1;shadow=0;" parent="WIyWlLk6GJQsqaUBKTNV-1" vertex="1">
          <mxGeometry x="160" y="130" width="120" height="40" as="geometry" />
        </mxCell>
        <mxCell id="pOoOVeyxzRa-pl3DBlk2-5" value="" style="edgeStyle=orthogonalEdgeStyle;rounded=0;orthogonalLoop=1;jettySize=auto;html=1;" edge="1" parent="WIyWlLk6GJQsqaUBKTNV-1" source="pOoOVeyxzRa-pl3DBlk2-0" target="pOoOVeyxzRa-pl3DBlk2-4">
          <mxGeometry relative="1" as="geometry" />
        </mxCell>
        <mxCell id="pOoOVeyxzRa-pl3DBlk2-0" value="Store result to a variable" style="whiteSpace=wrap;html=1;rounded=1;glass=0;strokeWidth=1;shadow=0;" vertex="1" parent="WIyWlLk6GJQsqaUBKTNV-1">
          <mxGeometry x="160" y="200" width="120" height="60" as="geometry" />
        </mxCell>
        <mxCell id="pOoOVeyxzRa-pl3DBlk2-47" value="" style="edgeStyle=orthogonalEdgeStyle;rounded=0;orthogonalLoop=1;jettySize=auto;html=1;" edge="1" parent="WIyWlLk6GJQsqaUBKTNV-1" source="pOoOVeyxzRa-pl3DBlk2-4" target="pOoOVeyxzRa-pl3DBlk2-46">
          <mxGeometry relative="1" as="geometry" />
        </mxCell>
        <mxCell id="pOoOVeyxzRa-pl3DBlk2-4" value="Simula another flip" style="whiteSpace=wrap;html=1;rounded=1;glass=0;strokeWidth=1;shadow=0;" vertex="1" parent="WIyWlLk6GJQsqaUBKTNV-1">
          <mxGeometry x="160" y="300" width="120" height="60" as="geometry" />
        </mxCell>
        <mxCell id="pOoOVeyxzRa-pl3DBlk2-11" value="" style="edgeStyle=orthogonalEdgeStyle;rounded=0;orthogonalLoop=1;jettySize=auto;html=1;" edge="1" parent="WIyWlLk6GJQsqaUBKTNV-1" source="pOoOVeyxzRa-pl3DBlk2-6" target="pOoOVeyxzRa-pl3DBlk2-10">
          <mxGeometry relative="1" as="geometry" />
        </mxCell>
        <mxCell id="pOoOVeyxzRa-pl3DBlk2-12" value="YES" style="edgeLabel;html=1;align=center;verticalAlign=middle;resizable=0;points=[];" vertex="1" connectable="0" parent="pOoOVeyxzRa-pl3DBlk2-11">
          <mxGeometry x="-0.3333" y="3" relative="1" as="geometry">
            <mxPoint as="offset" />
          </mxGeometry>
        </mxCell>
        <mxCell id="pOoOVeyxzRa-pl3DBlk2-19" value="" style="edgeStyle=orthogonalEdgeStyle;rounded=0;orthogonalLoop=1;jettySize=auto;html=1;" edge="1" parent="WIyWlLk6GJQsqaUBKTNV-1" source="pOoOVeyxzRa-pl3DBlk2-6" target="pOoOVeyxzRa-pl3DBlk2-18">
          <mxGeometry relative="1" as="geometry" />
        </mxCell>
        <mxCell id="pOoOVeyxzRa-pl3DBlk2-20" value="NO" style="edgeLabel;html=1;align=center;verticalAlign=middle;resizable=0;points=[];" vertex="1" connectable="0" parent="pOoOVeyxzRa-pl3DBlk2-19">
          <mxGeometry x="-0.2" y="-1" relative="1" as="geometry">
            <mxPoint as="offset" />
          </mxGeometry>
        </mxCell>
        <mxCell id="pOoOVeyxzRa-pl3DBlk2-6" value="Same result of the&lt;div&gt;previou simulation?&lt;/div&gt;" style="rhombus;whiteSpace=wrap;html=1;rounded=1;glass=0;strokeWidth=1;shadow=0;" vertex="1" parent="WIyWlLk6GJQsqaUBKTNV-1">
          <mxGeometry x="145" y="470" width="150" height="120" as="geometry" />
        </mxCell>
        <mxCell id="pOoOVeyxzRa-pl3DBlk2-14" value="" style="edgeStyle=orthogonalEdgeStyle;rounded=0;orthogonalLoop=1;jettySize=auto;html=1;" edge="1" parent="WIyWlLk6GJQsqaUBKTNV-1" source="pOoOVeyxzRa-pl3DBlk2-10" target="pOoOVeyxzRa-pl3DBlk2-13">
          <mxGeometry relative="1" as="geometry" />
        </mxCell>
        <mxCell id="pOoOVeyxzRa-pl3DBlk2-10" value="Add 1 to the counter&lt;div&gt;of the same occurences&lt;/div&gt;" style="whiteSpace=wrap;html=1;rounded=1;glass=0;strokeWidth=1;shadow=0;" vertex="1" parent="WIyWlLk6GJQsqaUBKTNV-1">
          <mxGeometry x="160" y="635" width="120" height="60" as="geometry" />
        </mxCell>
        <mxCell id="pOoOVeyxzRa-pl3DBlk2-17" style="edgeStyle=orthogonalEdgeStyle;rounded=0;orthogonalLoop=1;jettySize=auto;html=1;exitX=0;exitY=0.5;exitDx=0;exitDy=0;entryX=0;entryY=0.5;entryDx=0;entryDy=0;" edge="1" parent="WIyWlLk6GJQsqaUBKTNV-1" source="pOoOVeyxzRa-pl3DBlk2-13" target="pOoOVeyxzRa-pl3DBlk2-4">
          <mxGeometry relative="1" as="geometry">
            <Array as="points">
              <mxPoint x="70" y="805" />
              <mxPoint x="70" y="330" />
            </Array>
          </mxGeometry>
        </mxCell>
        <mxCell id="pOoOVeyxzRa-pl3DBlk2-25" value="NO" style="edgeLabel;html=1;align=center;verticalAlign=middle;resizable=0;points=[];" vertex="1" connectable="0" parent="pOoOVeyxzRa-pl3DBlk2-17">
          <mxGeometry x="-0.8081" y="-4" relative="1" as="geometry">
            <mxPoint as="offset" />
          </mxGeometry>
        </mxCell>
        <mxCell id="pOoOVeyxzRa-pl3DBlk2-43" value="" style="edgeStyle=orthogonalEdgeStyle;rounded=0;orthogonalLoop=1;jettySize=auto;html=1;" edge="1" parent="WIyWlLk6GJQsqaUBKTNV-1" source="pOoOVeyxzRa-pl3DBlk2-13" target="pOoOVeyxzRa-pl3DBlk2-42">
          <mxGeometry relative="1" as="geometry" />
        </mxCell>
        <mxCell id="pOoOVeyxzRa-pl3DBlk2-13" value="Counter&amp;gt;2?" style="rhombus;whiteSpace=wrap;html=1;rounded=1;glass=0;strokeWidth=1;shadow=0;" vertex="1" parent="WIyWlLk6GJQsqaUBKTNV-1">
          <mxGeometry x="180" y="765" width="80" height="80" as="geometry" />
        </mxCell>
        <mxCell id="pOoOVeyxzRa-pl3DBlk2-23" value="" style="edgeStyle=orthogonalEdgeStyle;rounded=0;orthogonalLoop=1;jettySize=auto;html=1;" edge="1" parent="WIyWlLk6GJQsqaUBKTNV-1" source="pOoOVeyxzRa-pl3DBlk2-18" target="pOoOVeyxzRa-pl3DBlk2-22">
          <mxGeometry relative="1" as="geometry" />
        </mxCell>
        <mxCell id="pOoOVeyxzRa-pl3DBlk2-18" value="Save result to variable" style="whiteSpace=wrap;html=1;rounded=1;glass=0;strokeWidth=1;shadow=0;" vertex="1" parent="WIyWlLk6GJQsqaUBKTNV-1">
          <mxGeometry x="360" y="500" width="120" height="60" as="geometry" />
        </mxCell>
        <mxCell id="pOoOVeyxzRa-pl3DBlk2-24" style="edgeStyle=orthogonalEdgeStyle;rounded=0;orthogonalLoop=1;jettySize=auto;html=1;exitX=0.5;exitY=0;exitDx=0;exitDy=0;entryX=1;entryY=0.5;entryDx=0;entryDy=0;" edge="1" parent="WIyWlLk6GJQsqaUBKTNV-1" source="pOoOVeyxzRa-pl3DBlk2-22" target="pOoOVeyxzRa-pl3DBlk2-4">
          <mxGeometry relative="1" as="geometry" />
        </mxCell>
        <mxCell id="pOoOVeyxzRa-pl3DBlk2-22" value="Set counter of the same occurences&lt;div&gt;to 0&lt;/div&gt;" style="whiteSpace=wrap;html=1;rounded=1;glass=0;strokeWidth=1;shadow=0;" vertex="1" parent="WIyWlLk6GJQsqaUBKTNV-1">
          <mxGeometry x="560" y="500" width="120" height="60" as="geometry" />
        </mxCell>
        <mxCell id="pOoOVeyxzRa-pl3DBlk2-26" value="START" style="whiteSpace=wrap;html=1;rounded=1;glass=0;strokeWidth=1;shadow=0;" vertex="1" parent="WIyWlLk6GJQsqaUBKTNV-1">
          <mxGeometry x="160" y="50" width="120" height="40" as="geometry" />
        </mxCell>
        <mxCell id="pOoOVeyxzRa-pl3DBlk2-36" value="" style="edgeStyle=orthogonalEdgeStyle;rounded=0;orthogonalLoop=1;jettySize=auto;html=1;" edge="1" parent="WIyWlLk6GJQsqaUBKTNV-1" source="pOoOVeyxzRa-pl3DBlk2-32" target="pOoOVeyxzRa-pl3DBlk2-35">
          <mxGeometry relative="1" as="geometry" />
        </mxCell>
        <mxCell id="pOoOVeyxzRa-pl3DBlk2-32" value="Increment by 1 the number of simulations performed" style="whiteSpace=wrap;html=1;rounded=1;glass=0;strokeWidth=1;shadow=0;" vertex="1" parent="WIyWlLk6GJQsqaUBKTNV-1">
          <mxGeometry x="160" y="980" width="120" height="60" as="geometry" />
        </mxCell>
        <mxCell id="pOoOVeyxzRa-pl3DBlk2-38" style="edgeStyle=orthogonalEdgeStyle;rounded=0;orthogonalLoop=1;jettySize=auto;html=1;exitX=0;exitY=0.5;exitDx=0;exitDy=0;entryX=0;entryY=0.5;entryDx=0;entryDy=0;" edge="1" parent="WIyWlLk6GJQsqaUBKTNV-1" source="pOoOVeyxzRa-pl3DBlk2-35" target="WIyWlLk6GJQsqaUBKTNV-3">
          <mxGeometry relative="1" as="geometry">
            <mxPoint x="135" y="1155" as="sourcePoint" />
            <mxPoint x="160" y="200" as="targetPoint" />
            <Array as="points">
              <mxPoint x="30" y="1105" />
              <mxPoint x="30" y="150" />
            </Array>
          </mxGeometry>
        </mxCell>
        <mxCell id="pOoOVeyxzRa-pl3DBlk2-39" value="YES" style="edgeLabel;html=1;align=center;verticalAlign=middle;resizable=0;points=[];" vertex="1" connectable="0" parent="pOoOVeyxzRa-pl3DBlk2-38">
          <mxGeometry x="-0.9018" y="-1" relative="1" as="geometry">
            <mxPoint x="1" y="1" as="offset" />
          </mxGeometry>
        </mxCell>
        <mxCell id="pOoOVeyxzRa-pl3DBlk2-41" value="" style="edgeStyle=orthogonalEdgeStyle;rounded=0;orthogonalLoop=1;jettySize=auto;html=1;" edge="1" parent="WIyWlLk6GJQsqaUBKTNV-1" source="pOoOVeyxzRa-pl3DBlk2-35" target="pOoOVeyxzRa-pl3DBlk2-40">
          <mxGeometry relative="1" as="geometry" />
        </mxCell>
        <mxCell id="pOoOVeyxzRa-pl3DBlk2-35" value="Number of simulations&lt;div&gt;performed&amp;lt;10?&lt;/div&gt;" style="rhombus;whiteSpace=wrap;html=1;rounded=1;glass=0;strokeWidth=1;shadow=0;" vertex="1" parent="WIyWlLk6GJQsqaUBKTNV-1">
          <mxGeometry x="135" y="1065" width="170" height="80" as="geometry" />
        </mxCell>
        <mxCell id="pOoOVeyxzRa-pl3DBlk2-50" value="" style="edgeStyle=orthogonalEdgeStyle;rounded=0;orthogonalLoop=1;jettySize=auto;html=1;" edge="1" parent="WIyWlLk6GJQsqaUBKTNV-1" source="pOoOVeyxzRa-pl3DBlk2-40" target="pOoOVeyxzRa-pl3DBlk2-49">
          <mxGeometry relative="1" as="geometry" />
        </mxCell>
        <mxCell id="pOoOVeyxzRa-pl3DBlk2-40" value="Cmpute the mean of the number of flip performed in each simulation" style="whiteSpace=wrap;html=1;rounded=1;glass=0;strokeWidth=1;shadow=0;" vertex="1" parent="WIyWlLk6GJQsqaUBKTNV-1">
          <mxGeometry x="370" y="1075" width="120" height="60" as="geometry" />
        </mxCell>
        <mxCell id="pOoOVeyxzRa-pl3DBlk2-53" style="edgeStyle=orthogonalEdgeStyle;rounded=0;orthogonalLoop=1;jettySize=auto;html=1;exitX=0.5;exitY=1;exitDx=0;exitDy=0;entryX=0.5;entryY=0;entryDx=0;entryDy=0;" edge="1" parent="WIyWlLk6GJQsqaUBKTNV-1" source="pOoOVeyxzRa-pl3DBlk2-42" target="pOoOVeyxzRa-pl3DBlk2-32">
          <mxGeometry relative="1" as="geometry" />
        </mxCell>
        <mxCell id="pOoOVeyxzRa-pl3DBlk2-42" value="Save the number of flip" style="whiteSpace=wrap;html=1;rounded=1;glass=0;strokeWidth=1;shadow=0;" vertex="1" parent="WIyWlLk6GJQsqaUBKTNV-1">
          <mxGeometry x="160" y="870" width="120" height="60" as="geometry" />
        </mxCell>
        <mxCell id="pOoOVeyxzRa-pl3DBlk2-48" style="edgeStyle=orthogonalEdgeStyle;rounded=0;orthogonalLoop=1;jettySize=auto;html=1;exitX=0.5;exitY=1;exitDx=0;exitDy=0;entryX=0.5;entryY=0;entryDx=0;entryDy=0;" edge="1" parent="WIyWlLk6GJQsqaUBKTNV-1" source="pOoOVeyxzRa-pl3DBlk2-46" target="pOoOVeyxzRa-pl3DBlk2-6">
          <mxGeometry relative="1" as="geometry" />
        </mxCell>
        <mxCell id="pOoOVeyxzRa-pl3DBlk2-46" value="Increment by 1 the number of flip performed during the simulation" style="whiteSpace=wrap;html=1;rounded=1;glass=0;strokeWidth=1;shadow=0;" vertex="1" parent="WIyWlLk6GJQsqaUBKTNV-1">
          <mxGeometry x="160" y="390" width="120" height="60" as="geometry" />
        </mxCell>
        <mxCell id="pOoOVeyxzRa-pl3DBlk2-52" value="" style="edgeStyle=orthogonalEdgeStyle;rounded=0;orthogonalLoop=1;jettySize=auto;html=1;" edge="1" parent="WIyWlLk6GJQsqaUBKTNV-1" source="pOoOVeyxzRa-pl3DBlk2-49" target="pOoOVeyxzRa-pl3DBlk2-51">
          <mxGeometry relative="1" as="geometry" />
        </mxCell>
        <mxCell id="pOoOVeyxzRa-pl3DBlk2-49" value="Print the mean of the flip performed" style="whiteSpace=wrap;html=1;rounded=1;glass=0;strokeWidth=1;shadow=0;" vertex="1" parent="WIyWlLk6GJQsqaUBKTNV-1">
          <mxGeometry x="530" y="1075" width="120" height="60" as="geometry" />
        </mxCell>
        <mxCell id="pOoOVeyxzRa-pl3DBlk2-51" value="END" style="whiteSpace=wrap;html=1;rounded=1;glass=0;strokeWidth=1;shadow=0;" vertex="1" parent="WIyWlLk6GJQsqaUBKTNV-1">
          <mxGeometry x="680" y="1075" width="120" height="60" as="geometry" />
        </mxCell>
      </root>
    </mxGraphModel>
  </diagram>
</mxfile>
